<svg width="12" height="12" viewBox="0 0 12 12" fill="none" xmlns="http://www.w3.org/2000/svg">
<path d="M11.4495 10.9094H0.54535C0.24408 10.9094 0 11.1535 0 11.455C0 11.756 0.24408 12.0001 0.54535 12.0001H11.4493C11.7505 12.0001 11.9946 11.756 11.9946 11.455C11.9944 11.1535 11.7503 10.9094 11.4495 10.9094Z" fill="#C9C9C9"/>
<path d="M1.22894 9.48968C0.927673 9.48968 0.683594 9.73387 0.683594 10.0353C0.683594 10.3367 0.927673 10.5811 1.22894 10.5811H10.77C11.0713 10.5811 11.3154 10.3367 11.3154 10.0353C11.3154 9.73387 11.0713 9.48968 10.77 9.48968H10.6339V4.58025H10.77C10.9209 4.58025 11.0424 4.45815 11.0424 4.3077C11.0424 4.15725 10.9204 4.03516 10.77 4.03516H1.22894C1.07831 4.03516 0.956524 4.15725 0.956524 4.3077C0.956524 4.45815 1.07856 4.58025 1.22894 4.58025H1.36528V9.48942H1.22894V9.48968ZM9.54323 4.58025V9.48942H7.90769V4.58025H9.54323ZM6.81699 4.58025V9.48942H5.18145V4.58025H6.81699ZM2.45547 4.58025H4.09101V9.48942H2.45547V4.58025Z" fill="#C9C9C9"/>
<path d="M0.54536 3.54528H11.4493C11.4511 3.54528 11.4531 3.54528 11.4547 3.54528C11.7562 3.54528 12 3.30109 12 2.99968C12 2.76008 11.8458 2.55701 11.6316 2.48345L6.22149 0.0478937C6.07928 -0.0159646 5.91664 -0.0159646 5.77418 0.0478937L0.321705 2.50235C0.0870722 2.6081 -0.0418611 2.86302 0.0122654 3.11437C0.0661365 3.36571 0.288259 3.54528 0.54536 3.54528Z" fill="#C9C9C9"/>
</svg>
