<svg width="320" height="327" viewBox="0 0 320 327" fill="none" xmlns="http://www.w3.org/2000/svg">
<mask id="mask0_1_880" style="mask-type:alpha" maskUnits="userSpaceOnUse" x="0" y="0" width="320" height="327">
<rect width="320" height="327" fill="#0D0F5A"/>
</mask>
<g mask="url(#mask0_1_880)">
<path opacity="0.3" d="M165.348 236.159C245.679 195.796 339.818 236.505 375.614 327.086C411.41 417.666 310.49 359.798 230.158 400.161C149.827 440.524 120.504 563.833 84.7088 473.252C48.9131 382.672 85.0164 276.521 165.348 236.159Z" fill="#158FED"/>
<path d="M-67.3347 7.48221C-121.107 47.0538 -193.546 30.1768 -228.971 -31.0281C-233.438 -38.7454 -235.85 -44.6421 -236.82 -49.1325C-237.77 -53.5266 -237.258 -56.1375 -236.384 -57.8602C-235.452 -59.6976 -233.587 -61.5534 -230.103 -63.3516C-226.619 -65.1494 -222.036 -66.6234 -216.376 -68.0086C-211.655 -69.1641 -206.435 -70.2014 -200.743 -71.3325C-199.633 -71.5529 -198.506 -71.7769 -197.361 -72.006C-190.4 -73.3991 -182.884 -74.9634 -175.177 -77.0171C-159.78 -81.1202 -143.351 -87.2417 -128.49 -98.1777C-113.63 -109.114 -102.046 -123.607 -92.5167 -137.848C-87.7467 -144.976 -83.4514 -152.104 -79.5179 -158.728C-78.8709 -159.818 -78.2353 -160.891 -77.6097 -161.948C-74.4 -167.367 -71.4563 -172.338 -68.6177 -176.746C-65.2146 -182.03 -62.1729 -186.167 -59.3111 -189.039C-56.4484 -191.912 -54.1913 -193.089 -52.3243 -193.312C-50.5738 -193.521 -48.2484 -192.998 -45.0635 -190.249C-41.8088 -187.439 -37.9927 -182.576 -33.526 -174.859C1.89925 -113.654 -13.5625 -32.0894 -67.3347 7.48221Z" stroke="#158FED" stroke-width="11"/>
<path d="M181.37 320.655C56.2917 412.702 -111.316 373.006 -192.978 231.917C-203.189 214.275 -209.24 199.913 -211.791 188.107C-214.341 176.31 -213.389 167.104 -209.641 159.719C-205.888 152.325 -199.288 146.669 -190.383 142.074C-181.478 137.479 -170.316 133.967 -157.505 130.832C-146.774 128.206 -134.91 125.849 -122.269 123.337C-119.819 122.85 -117.34 122.358 -114.834 121.856C-99.4061 118.769 -82.9812 115.347 -66.198 110.874C-32.6333 101.93 2.38849 88.7791 33.787 65.6725C65.1855 42.566 89.9607 11.7118 110.734 -19.3321C121.122 -34.8548 130.512 -50.4305 139.229 -65.1122C140.645 -67.4967 142.043 -69.8574 143.425 -72.1903C150.552 -84.2264 157.242 -95.5237 163.694 -105.542C171.397 -117.504 178.741 -127.611 186.057 -134.953C193.372 -142.294 200.62 -146.83 208.135 -147.727C215.638 -148.622 223.495 -145.898 232.046 -138.517C240.602 -131.131 249.826 -119.104 260.037 -101.462C341.698 39.6268 306.449 228.609 181.37 320.655Z" stroke="#158FED"/>
</g>
</svg>
