<svg width="64" height="70" viewBox="0 0 128 132" fill="none" xmlns="http://www.w3.org/2000/svg">
<path opacity="0.08" d="M116 52C116 86.6667 98.6667 104 64 104C29.3333 104 12 86.6667 12 52C12 17.3333 29.3333 0 64 0C98.6667 0 116 17.3333 116 52Z" fill="#474A4F"/>
<g filter="url(#filter0_d_1_1562)">
<path d="M112 52C112 84 96 100 64 100C32 100 16 84 16 52C16 20 32 4 64 4C96 4 112 20 112 52Z" fill="#474A4F"/>
</g>
<path fill-rule="evenodd" clip-rule="evenodd" d="M67.7021 28.7501L67.6226 28.75C67.1658 28.7497 66.8063 28.7495 66.4623 28.8394C66.1593 28.9186 65.8721 29.0489 65.613 29.2248C65.3188 29.4245 65.0823 29.6952 64.7817 30.0392L64.7294 30.099L50.7273 46.1013L50.684 46.1508C50.433 46.4374 50.2353 46.6631 50.0909 46.9254C49.9635 47.1567 49.8702 47.4052 49.8137 47.6631C49.7496 47.9556 49.7498 48.2557 49.75 48.6367L49.75 48.7024V66.8001L49.75 66.8305C49.75 67.3647 49.75 67.8105 49.7797 68.1747C49.8108 68.5546 49.8779 68.9113 50.0497 69.2485C50.3134 69.766 50.7341 70.1867 51.2515 70.4503C51.5888 70.6222 51.9454 70.6893 52.3253 70.7203C52.6896 70.7501 53.1354 70.7501 53.6695 70.7501H53.7H75.0559L75.19 70.7501C75.9326 70.7509 76.5142 70.7514 77.0214 70.5421C77.4661 70.3586 77.8549 70.0617 78.1489 69.681C78.4843 69.2467 78.6368 68.6854 78.8314 67.9689L78.8315 67.9688L78.8667 67.8394L83.8712 49.4894L83.8804 49.4556L83.8805 49.4554C84.06 48.7971 84.2079 48.255 84.2876 47.8107C84.3696 47.3537 84.3979 46.9118 84.2707 46.4772C84.0792 45.8234 83.6519 45.264 83.0715 44.9072C82.6857 44.6701 82.2519 44.5811 81.7895 44.54C81.3398 44.5 80.7778 44.5001 80.0952 44.5001H80.0604H67.3874L71.7777 34.256L71.7922 34.2223L71.7922 34.2223C72.099 33.5063 72.3496 32.9218 72.5055 32.4418C72.6642 31.9532 72.7608 31.4721 72.6686 30.9866C72.5315 30.2655 72.1119 29.6291 71.5031 29.2191C71.0932 28.9431 70.6129 28.8424 70.1013 28.7958C69.5987 28.75 68.9628 28.7501 68.1838 28.7501L68.1471 28.7501H67.7021ZM66.8415 30.2907C66.9751 30.2558 67.1285 30.2501 67.7021 30.2501H68.1471C68.9717 30.2501 69.5389 30.2508 69.9653 30.2896C70.3905 30.3283 70.5686 30.3982 70.6652 30.4633C70.9419 30.6496 71.1326 30.9389 71.1949 31.2667C71.2167 31.3811 71.2108 31.5723 71.0789 31.9784C70.9466 32.3856 70.7238 32.9072 70.399 33.6652L65.5606 44.9546C65.4613 45.1863 65.4851 45.4525 65.6239 45.6629C65.7627 45.8734 65.9979 46.0001 66.25 46.0001H80.0604C80.7865 46.0001 81.2813 46.0008 81.6567 46.0341C82.0268 46.067 82.1901 46.1261 82.286 46.1851C82.5499 46.3473 82.7441 46.6016 82.8311 46.8988C82.8628 47.0069 82.8769 47.1799 82.8112 47.5457C82.7446 47.9166 82.6151 48.3942 82.4241 49.0947L77.4195 67.4447C77.1713 68.3548 77.091 68.5967 76.9617 68.7641C76.8281 68.9372 76.6514 69.0721 76.4492 69.1556C76.2537 69.2362 75.9992 69.2501 75.0559 69.2501H53.7C53.1276 69.2501 52.7434 69.2495 52.4475 69.2253C52.1604 69.2018 52.0231 69.16 51.9325 69.1138C51.6973 68.994 51.5061 68.8028 51.3862 68.5676C51.3401 68.477 51.2982 68.3397 51.2748 68.0526C51.2506 67.7567 51.25 67.3725 51.25 66.8001V48.7024C51.25 48.2252 51.254 48.0979 51.279 47.9841C51.3046 47.8668 51.3471 47.7539 51.4049 47.6488C51.4611 47.5467 51.542 47.4482 51.8562 47.0891L65.8582 31.0867C66.236 30.655 66.3412 30.5434 66.4555 30.4658C66.5732 30.3859 66.7038 30.3267 66.8415 30.2907ZM44.5 47.5001C44.5 47.0859 44.1642 46.7501 43.75 46.7501C43.3358 46.7501 43 47.0859 43 47.5001V70.0001C43 70.4143 43.3358 70.7501 43.75 70.7501C44.1642 70.7501 44.5 70.4143 44.5 70.0001L44.5 47.5001Z" fill="white"/>
<defs>
<filter id="filter0_d_1_1562" x="0" y="4" width="128" height="128" filterUnits="userSpaceOnUse" color-interpolation-filters="sRGB">
<feFlood flood-opacity="0" result="BackgroundImageFix"/>
<feColorMatrix in="SourceAlpha" type="matrix" values="0 0 0 0 0 0 0 0 0 0 0 0 0 0 0 0 0 0 127 0" result="hardAlpha"/>
<feMorphology radius="8" operator="erode" in="SourceAlpha" result="effect1_dropShadow_1_1562"/>
<feOffset dy="16"/>
<feGaussianBlur stdDeviation="12"/>
<feColorMatrix type="matrix" values="0 0 0 0 0.12549 0 0 0 0 0.129412 0 0 0 0 0.141176 0 0 0 0.2 0"/>
<feBlend mode="normal" in2="BackgroundImageFix" result="effect1_dropShadow_1_1562"/>
<feBlend mode="normal" in="SourceGraphic" in2="effect1_dropShadow_1_1562" result="shape"/>
</filter>
</defs>
</svg>
