<svg width="64" height="70" viewBox="0 0 128 132" fill="none" xmlns="http://www.w3.org/2000/svg">
<path opacity="0.08" d="M116 52C116 86.6667 98.6667 104 64 104C29.3333 104 12 86.6667 12 52C12 17.3333 29.3333 0 64 0C98.6667 0 116 17.3333 116 52Z" fill="#474A4F"/>
<g filter="url(#filter0_d_1_1540)">
<path d="M112 52C112 84 96 100 64 100C32 100 16 84 16 52C16 20 32 4 64 4C96 4 112 20 112 52Z" fill="#474A4F"/>
</g>
<path fill-rule="evenodd" clip-rule="evenodd" d="M80.1363 34.1398C79.8852 34.0582 79.6148 34.0582 79.3637 34.1398C79.2671 34.1712 79.1404 34.2387 78.9208 34.4251C78.6945 34.6172 78.4224 34.8885 78.0176 35.2933L75.9571 37.3537C75.8068 38.4083 75.6999 39.1823 75.6576 39.7972C75.6123 40.4562 75.6482 40.8577 75.7479 41.1647C76.0693 42.1547 76.8455 42.9309 77.8355 43.2523C78.1425 43.352 78.544 43.3879 79.203 43.3426C79.8179 43.3003 80.5919 43.1934 81.6465 43.0431L83.7069 40.9826C84.1117 40.5778 84.383 40.3057 84.5751 40.0794C84.7615 39.8598 84.829 39.7331 84.8604 39.6365C84.942 39.3854 84.942 39.115 84.8604 38.8639C84.829 38.7673 84.7615 38.6406 84.5751 38.4209C84.383 38.1946 84.1117 37.9225 83.7069 37.5178L81.4824 35.2933C81.0776 34.8885 80.8055 34.6172 80.5792 34.4251C80.3596 34.2387 80.2329 34.1712 80.1363 34.1398ZM79.9041 44.7854C79.6921 44.8081 79.493 44.8262 79.3059 44.8391C78.5731 44.8895 77.9477 44.8658 77.3723 44.679C75.9253 44.2093 74.7909 43.0748 74.3212 41.6279C74.1344 41.0524 74.1107 40.4271 74.1611 39.6943C74.174 39.5072 74.1921 39.3081 74.2148 39.096L65.7838 47.527C65.3006 48.0103 65.1189 48.1951 64.9729 48.3982C64.8361 48.5885 64.7203 48.7931 64.6275 49.0083C64.5285 49.238 64.4634 49.4889 64.2977 50.1519L62.7808 56.2194L68.8483 54.7025C69.5113 54.5368 69.7622 54.4717 69.9918 54.3727C70.2071 54.2799 70.4117 54.1641 70.602 54.0272C70.805 53.8813 70.9899 53.6996 71.4732 53.2164L79.9041 44.7854ZM78.9002 32.7132C79.4525 32.5337 80.0475 32.5337 80.5998 32.7132C80.9598 32.8302 81.2594 33.0349 81.55 33.2816C81.8286 33.5181 82.1439 33.8334 82.5215 34.2111L82.5431 34.2326L84.7676 36.4571L84.7891 36.4787L84.7892 36.4787C85.1669 36.8564 85.4821 37.1716 85.7186 37.4502C85.9653 37.7407 86.17 38.0404 86.287 38.4004C86.4664 38.9527 86.4664 39.5477 86.287 40.1C86.17 40.46 85.9653 40.7596 85.7186 41.0502C85.4821 41.3288 85.1669 41.644 84.7892 42.0217L84.7891 42.0217L84.7676 42.0433L72.5338 54.277L72.4897 54.3211C72.0652 54.7457 71.7915 55.0195 71.4776 55.2452C71.1994 55.4452 70.9004 55.6145 70.5858 55.7501C70.2307 55.9032 69.8551 55.9971 69.2727 56.1426L69.2727 56.1426L69.2121 56.1577L61.9319 57.9778C61.6763 58.0417 61.406 57.9668 61.2197 57.7805C61.0334 57.5942 60.9585 57.3239 61.0224 57.0683L62.8424 49.7881L62.8576 49.7276L62.8576 49.7275C63.0031 49.1451 63.097 48.7695 63.2501 48.4144C63.3857 48.0998 63.555 47.8008 63.755 47.5226C63.9807 47.2087 64.2544 46.935 64.679 46.5105L64.679 46.5105L64.6791 46.5105L64.7232 46.4664L76.9569 34.2326L76.9785 34.2111L76.9785 34.211L76.9786 34.211C77.3562 33.8333 77.6714 33.5181 77.95 33.2816C78.2406 33.0349 78.5402 32.8302 78.9002 32.7132ZM50.117 34.0002L50.15 34.0002H64C64.4142 34.0002 64.75 34.336 64.75 34.7502C64.75 35.1644 64.4142 35.5002 64 35.5002H50.15C49.0175 35.5002 48.2133 35.5008 47.5839 35.5522C46.9633 35.6029 46.579 35.6993 46.2745 35.8544C45.663 36.166 45.1658 36.6632 44.8542 37.2747C44.6991 37.5792 44.6027 37.9634 44.552 38.5841C44.5006 39.2135 44.5 40.0177 44.5 41.1502L44.5 68.8502C44.5 69.9827 44.5006 70.7869 44.552 71.4163C44.6027 72.0369 44.6991 72.4212 44.8542 72.7257C45.1658 73.3372 45.663 73.8344 46.2745 74.146C46.579 74.3011 46.9633 74.3975 47.5839 74.4482C48.2133 74.4996 49.0175 74.5002 50.15 74.5002H77.85C78.9825 74.5002 79.7867 74.4996 80.4161 74.4482C81.0367 74.3975 81.421 74.3011 81.7255 74.146C82.337 73.8344 82.8342 73.3372 83.1458 72.7257C83.3009 72.4212 83.3973 72.0369 83.448 71.4163C83.4994 70.7869 83.5 69.9827 83.5 68.8502V55.0002C83.5 54.586 83.8358 54.2502 84.25 54.2502C84.6642 54.2502 85 54.586 85 55.0002V68.8502V68.8832C85 69.9753 85 70.8408 84.943 71.5385C84.8847 72.2518 84.7631 72.8555 84.4823 73.4066C84.0269 74.3004 83.3002 75.0271 82.4065 75.4825C81.8553 75.7633 81.2517 75.8849 80.5383 75.9432C79.8406 76.0002 78.9752 76.0002 77.883 76.0002H77.85H50.15H50.117C49.0248 76.0002 48.1594 76.0002 47.4617 75.9432C46.7483 75.8849 46.1447 75.7633 45.5935 75.4825C44.6998 75.0271 43.9731 74.3004 43.5177 73.4066C43.2369 72.8555 43.1153 72.2518 43.057 71.5385C43 70.8408 43 69.9753 43 68.8832V68.8502L43 41.1502V41.1172C43 40.025 43 39.1595 43.057 38.4619C43.1153 37.7485 43.2369 37.1449 43.5177 36.5937C43.9731 35.7 44.6998 34.9733 45.5935 34.5179C46.1447 34.2371 46.7483 34.1155 47.4617 34.0572C48.1594 34.0002 49.0249 34.0002 50.117 34.0002Z" fill="white"/>
<defs>
<filter id="filter0_d_1_1540" x="0" y="4" width="128" height="128" filterUnits="userSpaceOnUse" color-interpolation-filters="sRGB">
<feFlood flood-opacity="0" result="BackgroundImageFix"/>
<feColorMatrix in="SourceAlpha" type="matrix" values="0 0 0 0 0 0 0 0 0 0 0 0 0 0 0 0 0 0 127 0" result="hardAlpha"/>
<feMorphology radius="8" operator="erode" in="SourceAlpha" result="effect1_dropShadow_1_1540"/>
<feOffset dy="16"/>
<feGaussianBlur stdDeviation="12"/>
<feColorMatrix type="matrix" values="0 0 0 0 0.12549 0 0 0 0 0.129412 0 0 0 0 0.141176 0 0 0 0.2 0"/>
<feBlend mode="normal" in2="BackgroundImageFix" result="effect1_dropShadow_1_1540"/>
<feBlend mode="normal" in="SourceGraphic" in2="effect1_dropShadow_1_1540" result="shape"/>
</filter>
</defs>
</svg>
