<svg width="112" height="112" viewBox="0 0 122 130" fill="none" xmlns="http://www.w3.org/2000/svg">
<path opacity="0.2" d="M115 53C115 88.3333 97.3333 106 62 106C26.6667 106 9 88.3333 9 53C9 17.6667 26.6667 0 62 0C97.3333 0 115 17.6667 115 53Z" fill="#94BF4C"/>
<g filter="url(#filter0_d_1_2472)">
<path d="M106 53C106 83 91 98 61 98C31 98 16 83 16 53C16 23 31 8 61 8C91 8 106 23 106 53Z" fill="#94BF4C"/>
</g>
<mask id="mask0_1_2472" style="mask-type:alpha" maskUnits="userSpaceOnUse" x="34" y="26" width="54" height="54">
<path fill-rule="evenodd" clip-rule="evenodd" d="M34 26H88V79.9953H34V26Z" fill="white"/>
</mask>
<g mask="url(#mask0_1_2472)">
<path fill-rule="evenodd" clip-rule="evenodd" d="M58.149 74.7977C59.7418 76.3527 62.3064 76.3338 63.8884 74.7437L65.8375 72.8C67.3493 71.2909 69.4389 70.4297 71.5689 70.4297H74.3495C76.601 70.4297 78.4313 68.5994 78.4313 66.3506V63.5727C78.4313 61.4103 79.2682 59.3775 80.7962 57.8468L82.7399 55.9003C83.5309 55.1066 83.9548 54.0781 83.9521 52.9874C83.9494 51.8995 83.5201 50.8763 82.7453 50.1042L80.7989 48.1551C79.2682 46.6136 78.4313 44.5835 78.4313 42.4211V39.6486C78.4313 37.3971 76.601 35.5667 74.3495 35.5667H71.5743C69.4119 35.5667 67.379 34.7271 65.8483 33.2072L63.8992 31.2554C62.2767 29.6491 59.6878 29.6572 58.1031 31.2527L56.1621 33.1991C54.6125 34.7298 52.5797 35.5667 50.4254 35.5667H47.6474C45.3986 35.5694 43.5683 37.3998 43.5683 39.6486V42.4157C43.5683 44.5781 42.7287 46.6109 41.2061 48.1443L39.2894 50.0637C39.2705 50.0853 39.2516 50.1015 39.2327 50.1204C37.648 51.7159 37.6561 54.3049 39.2516 55.8895L41.2007 57.8387C42.7287 59.3721 43.5683 61.4049 43.5683 63.5673V66.3506C43.5683 68.5994 45.3959 70.4297 47.6474 70.4297H50.42C52.5851 70.4324 54.6179 71.272 56.1486 72.7973L58.095 74.7383C58.1112 74.7572 58.1301 74.7761 58.149 74.7977ZM60.9928 79.9963C58.9222 79.9963 56.8516 79.2134 55.2669 77.6423C55.2453 77.6207 55.2237 77.5991 55.2021 77.5748L53.2854 75.6607C52.5214 74.9021 51.5009 74.481 50.4157 74.4783H47.6459C43.1618 74.4783 39.5173 70.8311 39.5173 66.3497V63.5664C39.5173 62.4811 39.0935 61.4634 38.3322 60.6967L36.3911 58.7583C33.238 55.6214 33.2002 50.5137 36.2966 47.3281C36.3209 47.3038 36.3452 47.2795 36.3695 47.2552L38.3349 45.2845C39.0935 44.5205 39.5173 43.4973 39.5173 42.4148V39.6477C39.5173 35.1663 43.1618 31.5191 47.6432 31.5164H50.4238C51.5063 31.5164 52.5268 31.0925 53.3016 30.3285L55.2318 28.3929C58.3877 25.2155 63.5467 25.1993 66.7296 28.3632L68.703 30.3366C69.467 31.0952 70.4874 31.5164 71.5727 31.5164H74.3479C78.832 31.5164 82.4792 35.1636 82.4792 39.6477V42.4202C82.4792 43.5027 82.9003 44.5259 83.6643 45.2953L85.6027 47.2363C87.1388 48.7616 87.9918 50.7998 87.9999 52.973C88.008 55.1462 87.1685 57.1899 85.6378 58.7314L83.6589 60.7048C82.9003 61.4688 82.4792 62.4865 82.4792 63.5718V66.3497C82.4792 70.8311 78.832 74.4783 74.3506 74.4783H71.5673C70.4982 74.4783 69.4535 74.9102 68.6949 75.6634L66.7566 77.6018C65.1719 79.1972 63.0824 79.9963 60.9928 79.9963Z" fill="white"/>
</g>
<path fill-rule="evenodd" clip-rule="evenodd" d="M54.0573 61.9622C53.5389 61.9622 53.0206 61.7652 52.6264 61.3683C51.8355 60.5773 51.8355 59.2977 52.6264 58.5067L66.5025 44.6279C67.2935 43.8369 68.5759 43.8369 69.3668 44.6279C70.1578 45.4189 70.1578 46.7012 69.3668 47.4922L55.4881 61.3683C55.0939 61.7652 54.5756 61.9622 54.0573 61.9622Z" fill="white"/>
<path fill-rule="evenodd" clip-rule="evenodd" d="M67.7561 62.4422C66.2632 62.4422 65.043 61.2355 65.043 59.7426C65.043 58.2497 66.2389 57.043 67.7318 57.043H67.7561C69.249 57.043 70.4557 58.2497 70.4557 59.7426C70.4557 61.2355 69.249 62.4422 67.7561 62.4422Z" fill="white"/>
<path fill-rule="evenodd" clip-rule="evenodd" d="M54.2561 48.9432C52.7632 48.9432 51.543 47.7365 51.543 46.2436C51.543 44.7507 52.7389 43.5439 54.2318 43.5439H54.2561C55.749 43.5439 56.9557 44.7507 56.9557 46.2436C56.9557 47.7365 55.749 48.9432 54.2561 48.9432Z" fill="white"/>
<defs>
<filter id="filter0_d_1_2472" x="0" y="8" width="122" height="122" filterUnits="userSpaceOnUse" color-interpolation-filters="sRGB">
<feFlood flood-opacity="0" result="BackgroundImageFix"/>
<feColorMatrix in="SourceAlpha" type="matrix" values="0 0 0 0 0 0 0 0 0 0 0 0 0 0 0 0 0 0 127 0" result="hardAlpha"/>
<feMorphology radius="8" operator="erode" in="SourceAlpha" result="effect1_dropShadow_1_2472"/>
<feOffset dy="16"/>
<feGaussianBlur stdDeviation="12"/>
<feColorMatrix type="matrix" values="0 0 0 0 0.580392 0 0 0 0 0.74902 0 0 0 0 0.298039 0 0 0 0.2 0"/>
<feBlend mode="normal" in2="BackgroundImageFix" result="effect1_dropShadow_1_2472"/>
<feBlend mode="normal" in="SourceGraphic" in2="effect1_dropShadow_1_2472" result="shape"/>
</filter>
</defs>
</svg>
