<svg width="112" height="112" viewBox="0 0 88 92" fill="none" xmlns="http://www.w3.org/2000/svg">
<path opacity="0.08" d="M76 32C76 53.3333 65.3333 64 44 64C22.6667 64 12 53.3333 12 32C12 10.6667 22.6667 0 44 0C65.3333 0 76 10.6667 76 32Z" fill="#94BF4C"/>
<g filter="url(#filter0_d_1_3949)">
<path d="M72 32C72 50.6667 62.6667 60 44 60C25.3333 60 16 50.6667 16 32C16 13.3333 25.3333 4 44 4C62.6667 4 72 13.3333 72 32Z" fill="#94BF4C"/>
</g>
<mask id="mask0_1_3949" style="mask-type:alpha" maskUnits="userSpaceOnUse" x="32" y="20" width="24" height="22">
<path fill-rule="evenodd" clip-rule="evenodd" d="M32.3335 20.5H55.6828V41.7164H32.3335V20.5Z" fill="white"/>
</mask>
<g mask="url(#mask0_1_3949)">
<path fill-rule="evenodd" clip-rule="evenodd" d="M44.0149 22.25C43.4595 22.25 42.9649 22.537 42.6872 23.0188L34.2895 37.678C34.0165 38.1563 34.0189 38.7268 34.2954 39.204C34.5719 39.6812 35.0665 39.967 35.6184 39.967H52.3985C52.9492 39.967 53.4439 39.6812 53.7204 39.204C53.998 38.7268 54.0004 38.1563 53.725 37.678L45.3425 23.0188C45.066 22.537 44.5714 22.25 44.0149 22.25ZM52.3985 41.717H35.6184C34.4354 41.717 33.3749 41.1057 32.781 40.0813C32.1872 39.0582 32.1837 37.8343 32.7705 36.8088L41.1705 22.1485C41.7609 21.116 42.8237 20.5 44.0149 20.5H44.016C45.206 20.5 46.2712 21.1172 46.8615 22.1508L55.2452 36.8088C55.832 37.8343 55.8285 39.0582 55.2347 40.0813C54.6409 41.1057 53.5804 41.717 52.3985 41.717Z" fill="white"/>
</g>
<path fill-rule="evenodd" clip-rule="evenodd" d="M44.0049 33.5249C43.5219 33.5249 43.1299 33.1329 43.1299 32.6499V29.0332C43.1299 28.5502 43.5219 28.1582 44.0049 28.1582C44.4879 28.1582 44.8799 28.5502 44.8799 29.0332V32.6499C44.8799 33.1329 44.4879 33.5249 44.0049 33.5249Z" fill="white"/>
<path fill-rule="evenodd" clip-rule="evenodd" d="M44.007 37.4154C43.3618 37.4154 42.8345 36.8939 42.8345 36.2487C42.8345 35.6035 43.3513 35.082 43.9953 35.082H44.007C44.6521 35.082 45.1736 35.6035 45.1736 36.2487C45.1736 36.8939 44.6521 37.4154 44.007 37.4154Z" fill="white"/>
<defs>
<filter id="filter0_d_1_3949" x="0" y="4" width="88" height="88" filterUnits="userSpaceOnUse" color-interpolation-filters="sRGB">
<feFlood flood-opacity="0" result="BackgroundImageFix"/>
<feColorMatrix in="SourceAlpha" type="matrix" values="0 0 0 0 0 0 0 0 0 0 0 0 0 0 0 0 0 0 127 0" result="hardAlpha"/>
<feMorphology radius="8" operator="erode" in="SourceAlpha" result="effect1_dropShadow_1_3949"/>
<feOffset dy="16"/>
<feGaussianBlur stdDeviation="12"/>
<feColorMatrix type="matrix" values="0 0 0 0 0.580392 0 0 0 0 0.74902 0 0 0 0 0.298039 0 0 0 0.2 0"/>
<feBlend mode="normal" in2="BackgroundImageFix" result="effect1_dropShadow_1_3949"/>
<feBlend mode="normal" in="SourceGraphic" in2="effect1_dropShadow_1_3949" result="shape"/>
</filter>
</defs>
</svg>
